# xmcd
#
# Track frame offsets:
#	172
#	10497
#	23990
#	36630
#	46657
#	62450
#	73302
#	86290
#	98600
#	112922
#	125967
#	138635
#	153732
#	167320
#	181325
#	192240
#	204860
#	215767
#	228782
#	239807
#
# Disc length: 3372 seconds
#
# Revision: 0
# Processed by: cddbd v1.4PL0 Copyright (c) Steve Scherf et al.
# Submitted via: dBpowerAMP V4.0
#
DISCID=1a0d2a14
DTITLE=Eddie Arnold - Bouquet of Roses
DYEAR=1900
DGENRE=Country
TTITLE0=There's Been A Change In Me
TTITLE1=How's The World Treating You
TTITLE2=She's Just An Old Love Turned Memory
TTITLE3=The Song Of Long Ago
TTITLE4=Making Memories
TTITLE5=Moonlight And Roses (Bring Memories Of You)
TTITLE6=I Wish That I Had Loved You Better
TTITLE7=I'll Hold You In My Heart
TTITLE8=The Wayward Wind
TTITLE9=Take Me Home, Country Roads
TTITLE10=Something Old, Something New
TTITLE11=When You And I Were Young, Maggie
TTITLE12=Memories Of Us
TTITLE13=They Don't Make Love Like They Used To
TTITLE14=I Can't Stop Loving You
TTITLE15=Then You Can Tell Me Goodbye
TTITLE16=Bouquet Of Roses
TTITLE17=Chained To A Memory
TTITLE18=September Song
TTITLE19=As Time Goes By
EXTD=Eddie Arnold - Bouquet of Roses
EXTT0=
EXTT1=
EXTT2=
EXTT3=
EXTT4=
EXTT5=
EXTT6=
EXTT7=
EXTT8=
EXTT9=
EXTT10=
EXTT11=
EXTT12=
EXTT13=
EXTT14=
EXTT15=
EXTT16=
EXTT17=
EXTT18=
EXTT19=
PLAYORDER=
